<svg version="1.1" viewBox="0 0 531.79 100" xmlns="http://www.w3.org/2000/svg"><path d="m2.7729 6.8668e-5c-0.51609-0.0294-2.2156 9.3889-2.625 14.551-1.1117 14.018 4.1278 29.71 12.877 38.568 3.4346 3.4774 9.8542 8.1296 14.252 10.33 6.9949 3.5001 26.398 4.7926 37.52 2.498 9.1225-1.8822 9.9605-1.928 13.701-0.74219 8.3089 2.6339 15.129 14.617 18.766 32.973 0.2555 1.2896 0.73615 1.8223 1.6465 1.8223 1.1634 0 1.2521-0.2694 0.93164-2.8164-1.0462-8.3153-6.8998-22.909-13.23-32.988-4.0642-6.4704-13.301-16.553-19.688-21.49-5.9591-4.6072-16.468-10.238-23.994-12.854-8.8594-3.0791-8.39-2.8709-7.1875-3.1875 1.5734-0.41431 9.8895 1.6328 16.695 4.1094 15.388 5.5996 27.918 15.463 36.609 28.82l3.2324 4.9668-0.4121-4.3047c-0.65948-6.8922-2.6061-14.436-5.2813-20.463-4.7271-10.649-14.022-18.73-24.834-21.59-2.3666-0.62595-9.1536-1.2898-17-1.6621-7.1832-0.34086-15.385-1.1019-18.225-1.6914-10.834-2.2489-18.845-6.6577-21.818-12.008-0.8624-1.5517-1.7333-2.8303-1.9355-2.8418zm507.22 23.105c-3.3281 0.10937-6.1563 0.67969-8.4844 1.7109-2.3125 1.0156-4.125 2.2266-5.4375 3.6328-1.2969 1.3906-2.2266 2.7422-2.7891 4.0547-0.5625 1.2969-0.84375 2.3203-0.84375 3.0703l9.3047 5.0859c0-1.5938 0.60937-3.4141 1.8281-5.4609 1.5-2.5 4.25-3.75 8.25-3.75 1.3906 0.0156 2.5625 0.33594 3.5156 0.96094 0.96875 0.625 1.6797 1.4141 2.1328 2.3672 0.45313 0.95312 0.67969 1.9844 0.67969 3.0938-0.17187 1.6562-0.67969 2.9687-1.5234 3.9375-0.82812 0.96874-2.1719 2.0703-4.0312 3.3047-1.8594 1.2188-3.1719 2.1641-3.9375 2.8359-2.5 2.2031-3.75 5.5703-3.75 10.102h12.961c0-2.0937 0.1875-3.8125 0.5625-5.1562 0.39063-1.3437 1.1953-2.4141 2.4141-3.2109 0.29688-0.20313 1.4531-0.92188 3.4688-2.1562 2.0156-1.25 3.4844-2.3125 4.4062-3.1875 0.9375-0.875 1.6797-1.9531 2.2266-3.2344 0.5625-1.2812 0.84375-2.8672 0.84375-4.7578-0.26562-3-1.4219-5.4922-3.4688-7.4766-2.0312-1.9844-4.6484-3.4375-7.8516-4.3594-3.1875-0.9375-6.6797-1.4062-10.477-1.4062zm-260.98 4.5938c-13.25 0.35937-20.031 7.7188-20.344 22.078 0 8.5312 1.5781 14.812 4.7344 18.844 3.1562 4.0156 8.6172 6.0234 16.383 6.0234 3.3906 0 6.5-0.28125 9.3281-0.84375 2.8438-0.5625 5.1328-1.1797 6.8672-1.8516 1.75-0.6875 2.625-1.1016 2.625-1.2422v-16.898h-10.664v11.344c-0.54688 0.20312-1.5391 0.46093-2.9766 0.77343-1.4219 0.3125-3.1797 0.46875-5.2734 0.46875-2.3281-0.21874-4.0391-1.0859-5.1328-2.6016-1.0781-1.5156-1.7422-3.3281-1.9922-5.4375-0.23438-2.1094-0.35156-4.9062-0.35156-8.3906 0-4 0.71094-7.1406 2.1328-9.4219 1.4375-2.2969 3.8594-3.6016 7.2656-3.9141 1.4062-0.125 2.3984-0.1875 2.9766-0.1875 2.3906 0 4.5391 0.23438 6.4453 0.70312 1.9219 0.45313 3.5469 0.96094 4.875 1.5234 1.3282 0.5625 2 0.84375 2.0156 0.84375l-1.9219-9.7969c0-0.0625-0.76562-0.27344-2.2969-0.63282-1.5156-0.35937-3.5313-0.67969-6.0469-0.96093-2.5-0.28126-5.3828-0.42188-8.6484-0.42188zm83.719 0c-13.25 0.35937-20.031 7.7188-20.344 22.078 0 8.5312 1.5781 14.812 4.7344 18.844 3.1562 4.0156 8.6172 6.0234 16.383 6.0234 3.3906 0 6.5-0.28125 9.3281-0.84375 2.8438-0.5625 5.1328-1.1797 6.8672-1.8516 1.75-0.6875 2.625-1.1016 2.625-1.2422v-16.898h-10.664v11.344c-0.54688 0.20312-1.5391 0.46093-2.9766 0.77343-1.4219 0.3125-3.1797 0.46875-5.2734 0.46875-2.3281-0.21874-4.0391-1.0859-5.1328-2.6016-1.0781-1.5156-1.7422-3.3281-1.9922-5.4375-0.23438-2.1094-0.35156-4.9062-0.35156-8.3906 0-4 0.71094-7.1406 2.1328-9.4219 1.4375-2.2969 3.8594-3.6016 7.2656-3.9141 1.4062-0.125 2.3984-0.1875 2.9766-0.1875 2.3906 0 4.5391 0.23438 6.4453 0.70312 1.9219 0.45313 3.5469 0.96094 4.875 1.5234 1.3282 0.5625 2 0.84375 2.0156 0.84375l-1.9219-9.7969c0-0.0625-0.76562-0.27344-2.2969-0.63282-1.5156-0.35937-3.5313-0.67969-6.0469-0.96093-2.5-0.28126-5.3828-0.42188-8.6484-0.42188zm-236.65 1.0547v44.742h32.812v-7.5938h-18.703v-11.883h15.07v-7.5938h-15.07v-10.078h18.422v-7.5938zm194.72 11.438c-5.8437 0-10.289 1.4609-13.336 4.3828-3.0312 2.9062-4.5703 7.2031-4.6172 12.891 0 4.0312 0.64844 7.3125 1.9453 9.8438 1.2969 2.5156 3.25 4.375 5.8594 5.5781 2.625 1.2031 5.9375 1.8203 9.9375 1.8516 6.375 0 10.977-1.3906 13.805-4.1719 2.8281-2.7812 4.2422-7.1797 4.2422-13.195 0-3.8438-0.57032-7.0234-1.7109-9.5391-1.1406-2.5312-3.0313-4.4375-5.6719-5.7188-2.625-1.2812-6.1094-1.9219-10.453-1.9219zm-110.91 0.46875c-4.7187 0.10937-8.4141 1.5078-11.086 4.1953-2.6562 2.6719-3.9844 7.1016-3.9844 13.289 0.0937 10.297 4.7344 15.703 13.922 16.219 0.26563 0 0.63281 0.0156 1.1016 0.0469s0.83594 0.0469 1.1016 0.0469c3.2187 0 6.0078-0.28906 8.3672-0.86718 2.3594-0.57813 3.9844-1.0547 4.875-1.4297l1.3594-7.6875c-0.76563 0.5625-2.1875 1.2734-4.2656 2.1328s-4.625 1.3359-7.6406 1.4297c-4.4844 0-6.7266-2.5313-6.7266-7.5938h19.102c0.0469-0.29687 0.10159-0.80469 0.16406-1.5234 0.0781-0.73437 0.11719-1.6016 0.11719-2.6016-0.14063-5.7969-1.3516-9.7969-3.6328-12-1.5938-1.5469-3.336-2.5391-5.2266-2.9766-1.8906-0.45313-4.4062-0.67969-7.5469-0.67969zm221.02 0c-4.7187 0.10937-8.4141 1.5078-11.086 4.1953-2.6562 2.6719-3.9844 7.1016-3.9844 13.289 0.0937 10.297 4.7344 15.703 13.922 16.219 0.26562 0 0.63281 0.0156 1.1016 0.0469s0.83594 0.0469 1.1016 0.0469c3.2188 0 6.0078-0.28906 8.3672-0.86718 2.3594-0.57813 3.9844-1.0547 4.875-1.4297l1.3594-7.6875c-0.76562 0.5625-2.1875 1.2734-4.2656 2.1328-2.0781 0.85937-4.625 1.3359-7.6406 1.4297-4.4844 0-6.7266-2.5313-6.7266-7.5938h19.102c0.0469-0.29687 0.1016-0.80469 0.16407-1.5234 0.0781-0.73437 0.11718-1.6016 0.11718-2.6016-0.14062-5.7969-1.3516-9.7969-3.6328-12-1.5937-1.5469-3.3359-2.5391-5.2266-2.9766-1.8906-0.45313-4.4063-0.67969-7.5469-0.67969zm34.57 0c-4.7188 0.10937-8.4141 1.5078-11.086 4.1953-2.6562 2.6719-3.9844 7.1016-3.9844 13.289 0.0937 10.297 4.7344 15.703 13.922 16.219 0.26563 0 0.63282 0.0156 1.1016 0.0469 0.46875 0.0313 0.83594 0.0469 1.1016 0.0469 3.2188 0 6.0078-0.28906 8.3672-0.86718 2.3594-0.57813 3.9844-1.0547 4.875-1.4297l1.3594-7.6875c-0.76563 0.5625-2.1875 1.2734-4.2656 2.1328-2.0781 0.85937-4.625 1.3359-7.6406 1.4297-4.4844 0-6.7266-2.5313-6.7266-7.5938h19.102c0.0469-0.29687 0.10159-0.80469 0.16406-1.5234 0.0781-0.73437 0.11719-1.6016 0.11719-2.6016-0.14063-5.7969-1.3516-9.7969-3.6328-12-1.5938-1.5469-3.3359-2.5391-5.2266-2.9766-1.8906-0.45313-4.4062-0.67969-7.5469-0.67969zm40.523 0.39844c-1.7969 0-3.2969 0.22656-4.5 0.67968-1.2031 0.4375-2.1172 0.91407-2.7422 1.4297-0.625 0.51563-1 0.83594-1.125 0.96094v-2.6016h-12.094v31.969h12.094v-20.25c0.0156-0.79688 0.33593-1.8438 0.96093-3.1406 0.64062-1.2969 1.9531-2.0781 3.9375-2.3438 2.0781 0 3.625 0.47656 4.6406 1.4297 1.0156 0.95312 1.5234 2.1094 1.5234 3.4688v20.836h9.0234v-23.039c0-1.3125-0.38281-2.6953-1.1484-4.1484-0.75-1.4531-2.0078-2.6875-3.7734-3.7031-1.75-1.0312-4.0156-1.5469-6.7969-1.5469zm-254.72 0.0937c-1.5938 0-3.0078 0.1875-4.2422 0.5625-1.0938 0.32812-1.9688 0.71875-2.625 1.1719-0.65626 0.4375-1.1563 0.875-1.5 1.3125-0.34374 0.42186-0.53124 0.64842-0.5625 0.67969v-3.3516h-12.094v31.969h12.094v-18.914c0-2.8437 1.375-4.8906 4.125-6.1406 1.0937-0.51563 2.4375-0.77344 4.0312-0.77344 1.8125 0 3.6016 0.28906 5.3672 0.86719l-1.2422-7.1016c-0.75-0.1875-1.8672-0.28125-3.3516-0.28125zm157.36 0c-1.5938 0-3.0078 0.1875-4.2422 0.5625-1.0937 0.32812-1.9688 0.71875-2.625 1.1719-0.65624 0.4375-1.1562 0.875-1.5 1.3125-0.34373 0.42186-0.53123 0.64842-0.5625 0.67969v-3.3516h-12.094v31.969h12.094v-18.914c0-2.8437 1.375-4.8906 4.125-6.1406 1.0938-0.51563 2.4375-0.77344 4.0312-0.77344 1.8125 0 3.6016 0.28906 5.3672 0.86719l-1.2422-7.1016c-0.75-0.1875-1.8672-0.28125-3.3516-0.28125zm-248.02 0.375 15.75 33.609 15.656-33.609h-8.25l-5.2969 11.227-5.1797-11.227zm160.27 5.4844c2.7188 0 4.4375 0.94531 5.1562 2.8359 0.71875 1.8906 1.0781 4.4609 1.0781 7.7109 0 2.1875-0.10937 3.9688-0.32812 5.3438-0.21875 1.375-0.78125 2.5547-1.6875 3.5391s-2.3125 1.4766-4.2188 1.4766c-1.9531 0-3.3984-0.5-4.3359-1.5-0.92187-1.0156-1.4922-2.1719-1.7109-3.4688s-0.38281-3.1562-0.49218-5.5781c0-2.1094 0.125-3.8672 0.375-5.2734 0.26562-1.4219 0.875-2.625 1.8281-3.6094 0.95313-0.98437 2.3984-1.4766 4.3359-1.4766zm-108.21 0.65625c2.1094 0.17187 3.5156 0.90625 4.2188 2.2031 0.70313 1.2812 1.0547 2.9453 1.0547 4.9922h-11.039c0-4.7969 1.9219-7.1953 5.7656-7.1953zm221.02 0c2.1094 0.17187 3.5156 0.90625 4.2188 2.2031 0.70312 1.2812 1.0547 2.9453 1.0547 4.9922h-11.039c0-4.7969 1.9219-7.1953 5.7656-7.1953zm34.57 0c2.1094 0.17187 3.5156 0.90625 4.2188 2.2031 0.70312 1.2812 1.0547 2.9453 1.0547 4.9922h-11.039c0-4.7969 1.9219-7.1953 5.7656-7.1953zm73.266 13.641c-2.0938 0-3.7422 0.61719-4.9453 1.8516-1.1875 1.2187-1.7812 2.6484-1.7812 4.2891 0 1.6406 0.59375 3.0781 1.7812 4.3125 1.2031 1.2188 2.8516 1.8281 4.9453 1.8281 2.125 0 3.7734-0.60157 4.9453-1.8047 1.1719-1.2031 1.7578-2.6484 1.7578-4.3359s-0.58594-3.1328-1.7578-4.3359c-1.1719-1.2031-2.8203-1.8047-4.9453-1.8047z" stroke-width=".63433"/></svg>
